<svg width="20" height="20" viewBox="0 0 20 20" fill="none" xmlns="http://www.w3.org/2000/svg">
<g clip-path="url(#clip0_1123_5333)">
<path d="M10.6796 3.1699L11.0396 4.6999C11.1496 5.1699 11.4796 5.5499 11.9196 5.7399C12.2496 5.8799 12.5796 6.0699 12.8996 6.3099C13.1596 6.4999 13.4796 6.6099 13.7896 6.6099C13.9296 6.6099 14.0796 6.5899 14.2196 6.5499L15.6296 6.1299L16.2396 7.1899L15.2296 8.1499C14.8696 8.4899 14.7096 8.9699 14.7796 9.4599C14.8196 9.7299 14.8396 9.9599 14.8396 10.1699C14.8396 10.3599 14.8196 10.5599 14.7896 10.8099C14.7296 11.2899 14.8996 11.7699 15.2496 12.0999L16.1796 12.9799L15.5696 14.0399L14.3796 13.6799C14.2396 13.6399 14.0896 13.6199 13.9496 13.6199C13.6196 13.6199 13.2896 13.7299 13.0196 13.9399C12.6396 14.2399 12.2096 14.4799 11.7596 14.6499C11.2896 14.8299 10.9396 15.2199 10.8296 15.7099L10.5596 16.8699H9.34965L9.04965 15.5899C8.93965 15.1299 8.61965 14.7499 8.18965 14.5599C7.76965 14.3799 7.37965 14.1299 7.02965 13.8399C6.75965 13.6099 6.40965 13.4899 6.05965 13.4899C5.91965 13.4899 5.76965 13.5099 5.62965 13.5499L4.39965 13.9199L3.78965 12.8599L4.88965 11.8199C5.21965 11.5099 5.38965 11.0599 5.34965 10.5999C5.33965 10.4599 5.32965 10.3199 5.32965 10.1799C5.32965 9.9599 5.34965 9.7199 5.39965 9.4399C5.47965 8.9499 5.30965 8.4599 4.94965 8.1199L3.85965 7.0899L4.46965 6.0299L6.03965 6.4999C6.17965 6.5399 6.32965 6.5599 6.46965 6.5599C6.77965 6.5599 7.07965 6.4599 7.33965 6.2799C7.63965 6.0699 7.93965 5.8999 8.24965 5.7699C8.68965 5.5799 9.01965 5.1999 9.12965 4.7299L9.48965 3.1999H10.6996M11.8596 1.6699H8.27965L7.63965 4.3599C7.21965 4.5399 6.81965 4.7699 6.44965 5.0299L3.73965 4.2199L1.94965 7.3299L3.89965 9.1699C3.84965 9.4899 3.81965 9.8099 3.81965 10.1399C3.81965 10.3199 3.82965 10.4999 3.84965 10.6799L1.88965 12.5399L3.67965 15.6499L6.04965 14.9399C6.50965 15.3299 7.01965 15.6499 7.56965 15.8899L8.14965 18.3199H11.7296L12.2796 16.0099C12.8796 15.7799 13.4396 15.4699 13.9396 15.0699L16.2696 15.7699L18.0596 12.6599L16.2796 10.9699C16.3196 10.6999 16.3396 10.4199 16.3396 10.1399C16.3396 9.8199 16.3096 9.5199 16.2596 9.2099L18.1296 7.4399L16.3396 4.3299L13.7996 5.0899C13.3996 4.7899 12.9696 4.5399 12.5096 4.3399L11.8696 1.6499L11.8596 1.6699Z" fill="#121212"/>
<path d="M10.0004 8.68994C10.7204 8.68994 11.3104 9.27994 11.3104 9.99994C11.3104 10.7199 10.7204 11.3099 10.0004 11.3099C9.28043 11.3099 8.69043 10.7199 8.69043 9.99994C8.69043 9.27994 9.28043 8.68994 10.0004 8.68994ZM10.0004 7.18994C8.45043 7.18994 7.19043 8.44994 7.19043 9.99994C7.19043 11.5499 8.45043 12.8099 10.0004 12.8099C11.5504 12.8099 12.8104 11.5499 12.8104 9.99994C12.8104 8.44994 11.5504 7.18994 10.0004 7.18994Z" fill="#121212"/>
</g>
<defs>
<clipPath id="clip0_1123_5333">
<rect width="20" height="20" fill="white"/>
</clipPath>
</defs>
</svg>
