<svg width="24" height="24" viewBox="0 0 24 24" fill="none" xmlns="http://www.w3.org/2000/svg">
<path d="M20.4519 14.9871C20.1468 15.8652 19.6631 16.6678 19.0325 17.3425C18.4019 18.0172 17.6385 18.5488 16.7923 18.9025V14.9871L18.9041 13.061L16.7923 11.1558V8.46619C17.6556 8.44987 18.4788 8.09199 19.0874 7.46835C19.696 6.8447 20.0423 6.0043 20.0529 5.12517C20.0529 2.81377 17.8929 2.00128 16.6616 2.00128C16.328 1.99238 15.9947 2.03009 15.6711 2.11335V2.2254C15.8293 2.2254 16.0701 2.2254 16.1526 2.2254C17.0056 2.2254 17.6453 2.63166 17.6453 3.42314C17.6385 3.59225 17.5981 3.75818 17.5266 3.91097C17.4551 4.06376 17.3539 4.20023 17.2292 4.31214C17.1045 4.42406 16.9589 4.50911 16.801 4.56217C16.6432 4.61522 16.4764 4.63519 16.3108 4.62086C14.199 4.62086 11.7158 2.8838 9.02624 2.8838C8.01188 2.83 7.01744 3.18488 6.25798 3.87168C5.49853 4.55849 5.03506 5.52205 4.96775 6.55404C4.96775 8.37514 6.00643 8.97051 7.10015 9.35574V9.24367C6.90547 9.11649 6.74829 8.93793 6.64533 8.72703C6.54237 8.51612 6.49751 8.28076 6.51547 8.04595C6.54722 7.62284 6.74094 7.22936 7.05489 6.9503C7.36884 6.67123 7.77788 6.52893 8.19389 6.55404C10.4639 6.55404 14.1234 8.48021 16.3865 8.48021H16.5998V11.1979L14.488 13.075L16.5998 15.0012V18.9726C15.7168 19.2916 14.7851 19.4482 13.8483 19.4348C10.3263 19.4348 8.08385 17.2635 8.08385 13.6423C8.07637 12.7869 8.19225 11.935 8.42779 11.1138L10.1888 10.3293V18.3212L13.7657 16.7172V8.51522L8.50345 10.9037C8.74999 10.1723 9.13651 9.49791 9.64068 8.91962C10.1449 8.34133 10.7567 7.87059 11.4407 7.53463V7.45058C7.91877 8.24206 4.5 10.9527 4.5 15.0362C4.5 19.736 8.40027 23 12.9334 23C17.7485 23 20.4587 19.736 20.5 14.9801L20.4519 14.9871Z" fill="#121212"/>
</svg>
