<svg width="24" height="24" viewBox="0 0 24 24" fill="none" xmlns="http://www.w3.org/2000/svg">
<path d="M12.0002 1.50024C6.1002 1.50024 1.2002 6.30024 1.2002 12.2002V19.5002C1.2002 21.4002 2.8002 23.0002 4.7002 23.0002H8.3002C8.9002 23.0002 9.4002 22.5002 9.4002 21.9002V14.3002C9.4002 13.7002 8.9002 13.2002 8.3002 13.2002H3.3002V12.1002C3.3002 7.30024 7.2002 3.50024 11.9002 3.50024C16.6002 3.50024 20.5002 7.40024 20.5002 12.1002V13.2002H15.5002C14.9002 13.2002 14.4002 13.7002 14.4002 14.3002V21.9002C14.4002 22.5002 14.9002 23.0002 15.5002 23.0002H19.1002C21.0002 23.0002 22.6002 21.4002 22.6002 19.5002V12.2002C22.8002 6.30024 17.9002 1.50024 12.0002 1.50024Z" fill="#727272"/>
</svg>
