<svg width="24" height="24" viewBox="0 0 24 24" fill="none" xmlns="http://www.w3.org/2000/svg">
<path d="M17.4688 3.76953V20.2695H6.46875V3.76953H17.4688ZM18.2188 2.01953H5.70875C5.15875 2.01953 4.71875 2.46953 4.71875 3.00953V21.0095C4.71875 21.5595 5.16875 22.0095 5.71875 22.0095H18.2188C18.7688 22.0095 19.2087 21.5595 19.2087 21.0195V3.02953C19.2087 2.47953 18.7587 2.02953 18.2087 2.02953L18.2188 2.01953Z" fill="#727272"/>
<path d="M15.2296 11.5285C15.5596 11.7185 15.5596 12.1985 15.2296 12.3885L9.84961 15.5285C9.51961 15.7185 9.09961 15.4785 9.09961 15.0985V8.82854C9.09961 8.44854 9.51961 8.20854 9.84961 8.39854L15.2296 11.5385V11.5285Z" fill="#727272"/>
</svg>
