<svg width="22" height="17" viewBox="0 0 22 17" fill="none" xmlns="http://www.w3.org/2000/svg">
<path d="M18.2109 6.74121C18.5156 6.74121 18.7734 6.63574 18.9844 6.4248C19.2012 6.20801 19.3096 5.9502 19.3096 5.65137C19.3096 5.34668 19.2012 5.08887 18.9844 4.87793C18.7734 4.66699 18.5156 4.56152 18.2109 4.56152C17.9121 4.56152 17.6543 4.66699 17.4375 4.87793C17.2266 5.08887 17.1211 5.34668 17.1211 5.65137C17.1211 5.9502 17.2266 6.20801 17.4375 6.4248C17.6543 6.63574 17.9121 6.74121 18.2109 6.74121ZM2.75977 16.7607C1.83984 16.7607 1.14844 16.5322 0.685547 16.0752C0.228516 15.624 0 14.9443 0 14.0361V4.83398C0 3.93164 0.228516 3.25488 0.685547 2.80371C1.14844 2.34668 1.83984 2.11816 2.75977 2.11816H5.21191C5.55762 2.11816 5.8125 2.07715 5.97656 1.99512C6.14062 1.90723 6.31934 1.75488 6.5127 1.53809L7.21582 0.74707C7.43848 0.506836 7.67871 0.322266 7.93652 0.193359C8.2002 0.0644531 8.55762 0 9.00879 0H12.5156C12.9668 0 13.3242 0.0644531 13.5879 0.193359C13.8516 0.322266 14.0918 0.506836 14.3086 0.74707L15.0117 1.53809C15.1465 1.68457 15.2666 1.80176 15.3721 1.88965C15.4834 1.97168 15.6094 2.03027 15.75 2.06543C15.8906 2.10059 16.0781 2.11816 16.3125 2.11816H18.8262C19.7402 2.11816 20.4287 2.34668 20.8916 2.80371C21.3545 3.25488 21.5859 3.93164 21.5859 4.83398V14.0361C21.5859 14.9443 21.3545 15.624 20.8916 16.0752C20.4287 16.5322 19.7402 16.7607 18.8262 16.7607H2.75977ZM10.793 14.168C11.4551 14.168 12.0762 14.0449 12.6562 13.7988C13.2363 13.5527 13.7461 13.21 14.1855 12.7705C14.625 12.3311 14.9678 11.8213 15.2139 11.2412C15.46 10.6611 15.583 10.0342 15.583 9.36035C15.583 8.46973 15.3691 7.66113 14.9414 6.93457C14.5137 6.20801 13.9365 5.63086 13.21 5.20312C12.4834 4.77539 11.6777 4.56152 10.793 4.56152C10.125 4.56152 9.50098 4.68457 8.9209 4.93066C8.34082 5.17676 7.83105 5.51953 7.3916 5.95898C6.95801 6.39844 6.61523 6.9082 6.36328 7.48828C6.11719 8.06836 5.99414 8.69238 5.99414 9.36035C5.99414 10.0342 6.11719 10.6611 6.36328 11.2412C6.61523 11.8213 6.95801 12.3311 7.3916 12.7705C7.83105 13.21 8.34082 13.5527 8.9209 13.7988C9.50098 14.0449 10.125 14.168 10.793 14.168ZM10.793 12.832C10.1543 12.832 9.57129 12.6768 9.04395 12.3662C8.52246 12.0557 8.10352 11.6396 7.78711 11.1182C7.47656 10.5908 7.32129 10.0049 7.32129 9.36035C7.32129 8.72168 7.47656 8.1416 7.78711 7.62012C8.10352 7.09277 8.52246 6.67383 9.04395 6.36328C9.57129 6.04688 10.1543 5.88867 10.793 5.88867C11.4316 5.88867 12.0117 6.04688 12.5332 6.36328C13.0605 6.67383 13.4795 7.09277 13.79 7.62012C14.1006 8.1416 14.2559 8.72168 14.2559 9.36035C14.2559 10.0049 14.1006 10.5908 13.79 11.1182C13.4795 11.6396 13.0605 12.0557 12.5332 12.3662C12.0117 12.6768 11.4316 12.832 10.793 12.832Z" fill="white"/>
</svg>
