<svg width="11" height="27" viewBox="0 0 11 27" fill="none" xmlns="http://www.w3.org/2000/svg">
<path d="M0 2.57812V2.0625C0 0.6875 0.671875 0 2.01562 0H8.89453C10.2383 0 10.9102 0.6875 10.9102 2.0625V2.57812H0ZM4.41797 26.7188C3.79297 26.7188 3.29688 26.5312 2.92969 26.1562C2.57031 25.7812 2.39062 25.2812 2.39062 24.6562V11.8008C2.39062 11.1445 2.32031 10.5859 2.17969 10.125C2.04688 9.66406 1.86328 9.25391 1.62891 8.89453L0.960938 7.85156C0.671875 7.39844 0.4375 6.96094 0.257812 6.53906C0.0859375 6.11719 0 5.64453 0 5.12109V3.46875H10.9102V5.12109C10.9102 5.64453 10.8203 6.11719 10.6406 6.53906C10.4688 6.96094 10.2383 7.39844 9.94922 7.85156L9.28125 8.89453C9.04688 9.25391 8.85938 9.66406 8.71875 10.125C8.58594 10.5859 8.51953 11.1445 8.51953 11.8008V24.6562C8.51953 25.2812 8.33594 25.7812 7.96875 26.1562C7.60938 26.5312 7.11719 26.7188 6.49219 26.7188H4.41797ZM3.5625 12.6328V15.7617C3.5625 16.293 3.74609 16.7422 4.11328 17.1094C4.48047 17.4766 4.93359 17.6602 5.47266 17.6602C5.99609 17.6602 6.44141 17.4766 6.80859 17.1094C7.18359 16.7422 7.37109 16.293 7.37109 15.7617V12.6328C7.37109 12.1016 7.18359 11.6523 6.80859 11.2852C6.44141 10.9102 5.99609 10.7227 5.47266 10.7227C4.93359 10.7227 4.48047 10.9102 4.11328 11.2852C3.74609 11.6523 3.5625 12.1016 3.5625 12.6328ZM5.47266 16.9688C5.12891 16.9688 4.83594 16.8516 4.59375 16.6172C4.35938 16.3828 4.24219 16.0977 4.24219 15.7617C4.24219 15.4258 4.35938 15.1406 4.59375 14.9062C4.83594 14.6719 5.12891 14.5547 5.47266 14.5547C5.80859 14.5547 6.09375 14.6719 6.32812 14.9062C6.5625 15.1406 6.67969 15.4258 6.67969 15.7617C6.67969 16.0977 6.55859 16.3828 6.31641 16.6172C6.08203 16.8516 5.80078 16.9688 5.47266 16.9688Z" fill="white"/>
</svg>
