<svg width="185" height="26" viewBox="0 0 185 26" fill="none" xmlns="http://www.w3.org/2000/svg">
<mask id="mask0_100_48" style="mask-type:luminance" maskUnits="userSpaceOnUse" x="0" y="0" width="15" height="20">
<path fill-rule="evenodd" clip-rule="evenodd" d="M14.0492 0.000183105H0V19.0692H14.0492V0.000183105Z" fill="white"/>
</mask>
<g mask="url(#mask0_100_48)">
<path fill-rule="evenodd" clip-rule="evenodd" d="M11.4355 0.0227942C11.9525 0.0647942 12.7675 0.314794 13.3785 0.833794C14.0285 1.44279 14.1765 2.37179 13.9485 3.21279C13.7455 3.96479 13.5195 4.35579 12.7265 4.87179C11.9275 5.39979 10.9575 5.35579 10.9575 5.35579V8.60779L12.5945 9.88979L10.9575 11.1678V15.6028C10.9575 15.6028 12.5995 14.6888 13.6145 12.6588C13.6145 12.6588 13.6565 12.5448 13.7515 12.3318C13.8425 12.8818 13.7895 13.9878 13.1515 15.4008C12.6715 16.4688 11.8005 17.4998 10.7015 18.0878C8.76148 19.1248 7.30348 19.2258 5.74348 18.9128C3.91648 18.5458 2.25548 17.5568 1.11948 15.8218C0.326483 14.5988 -0.0305172 13.1798 0.00148275 11.6468C0.0674828 8.64679 2.37148 6.06379 5.03348 5.09179C5.35848 4.97679 5.48848 4.89779 5.94648 4.86079C5.73548 4.99879 5.49148 5.17679 5.19048 5.36879C4.33248 5.92079 3.59548 7.00379 3.28448 7.83879L8.45148 5.60979V12.6048L4.28548 14.6198C4.75948 15.2638 6.20148 16.2248 7.43748 16.3598C9.53348 16.5838 10.7675 15.6978 10.7675 15.6978L10.7655 11.1678L9.14048 9.88979L10.7675 8.61079V5.35579C9.88048 5.25479 8.80148 4.96979 8.17048 4.81879C7.24348 4.59679 4.15448 3.75879 3.67048 3.68879C3.18348 3.62079 2.58448 3.64179 2.22248 3.95379C1.85948 4.27179 1.63448 4.82779 1.79048 5.32979C1.87648 5.61279 2.07848 5.77879 2.23248 5.93879C2.23248 5.93879 2.05548 5.92579 1.72848 5.73779C1.14748 5.39979 0.701483 4.73279 0.648483 3.91379C0.582483 2.84879 1.03748 1.88279 1.94848 1.23079C2.74248 0.740794 3.63948 0.422794 4.68348 0.564794C6.20448 0.774794 8.24948 1.61179 10.0735 2.03379C10.7795 2.19779 11.3275 2.25179 11.8225 1.97279C12.0545 1.81479 12.4615 1.39879 12.1295 0.840794C11.7415 0.194794 10.9975 0.211794 10.3675 0.0937942C10.9085 -0.0152058 11.0305 -0.0152058 11.4355 0.0227942ZM5.29348 13.9248V7.17179L3.19348 8.08279C3.19348 8.08279 2.65848 9.23879 2.75048 10.9238C2.82348 12.2358 3.58348 13.8078 4.16748 14.4658L5.29348 13.9248Z" fill="black"/>
</g>
<path fill-rule="evenodd" clip-rule="evenodd" d="M31.4787 6.84406C31.4787 6.84406 29.8987 7.77706 28.8317 8.38806C27.7687 8.99706 26.3387 9.67706 26.3387 9.67706V16.1201L25.3867 16.8581L25.5137 17.0031L26.4417 16.2751L29.3547 18.8221L34.4157 14.9441L34.2937 14.8021L31.4977 16.9271L29.1987 14.8431V14.0661L33.8187 10.7801L31.4787 6.84406ZM31.5447 12.1661L29.1987 13.8301V8.29706L31.5447 12.1661Z" fill="black"/>
<path fill-rule="evenodd" clip-rule="evenodd" d="M18.2138 21.2477C18.8778 21.4067 20.0498 21.4927 21.4618 20.8087C23.0268 20.0527 23.8158 18.4427 23.8038 16.7897L23.8718 14.4557V9.34668L24.8718 8.60768L24.7548 8.46268L23.7708 9.18568L21.4978 6.73368L18.5828 9.15968V0.924683L14.9428 3.64968C15.1018 3.75368 15.6188 3.84168 15.6368 4.54768V16.0787L14.0908 17.1847L14.1968 17.3397L14.9428 16.8037L17.0168 18.6717L20.2798 16.1547L20.1638 16.0087L19.3958 16.6007L18.5828 15.8207L18.5918 9.39468L19.5418 8.60768L20.9598 10.3167C20.9598 10.3167 20.9568 14.4757 20.9618 15.8587C20.9508 17.3287 20.9478 19.1677 20.1468 20.0567C19.3468 20.9487 19.0258 21.0147 18.2138 21.2477Z" fill="black"/>
<path fill-rule="evenodd" clip-rule="evenodd" d="M40.8745 20.6689C39.5695 20.5199 39.0215 19.7589 39.0365 19.1549C39.0475 18.7639 39.4095 18.0089 40.2015 17.9019C40.9925 17.8019 41.8025 18.1589 42.4895 18.9369L45.5005 15.7149L45.3565 15.5859L44.5475 16.4629C43.7255 15.5599 42.5595 14.9869 41.3975 14.8239V5.00487L49.2225 18.8049C49.2225 18.8049 49.2995 18.9599 49.6205 18.9599C49.8965 18.9639 49.8305 18.7399 49.8305 18.7399L49.8265 4.85687C50.4635 4.83287 51.4375 4.48987 51.9055 4.02587C53.4135 2.52487 52.7975 0.893873 52.6315 0.731873C52.5405 1.44887 51.9745 2.16487 51.0265 2.16987C49.7835 2.17387 49.0245 1.28587 49.0245 1.28587L46.0145 4.60587L46.1585 4.73287L47.0195 3.78187C48.0745 4.71887 48.8435 4.80787 49.6385 4.85687V12.9159L43.8325 2.70387C43.3075 1.86387 42.5095 1.12087 41.2535 1.11287C39.8105 1.10587 38.7805 2.33387 38.6545 3.39087C38.5165 4.59087 38.6725 4.86687 38.6725 4.86687C38.6725 4.86687 38.8825 3.52987 39.7355 3.54787C40.4995 3.55687 40.8975 4.23687 41.2055 4.74787V7.70687C40.4155 7.76287 38.3625 7.84487 38.2335 9.91687C38.2265 10.6849 38.7215 11.4939 39.1525 11.7659C39.7085 12.1229 40.1425 12.1109 40.1425 12.1109C40.1425 12.1109 39.4755 11.7679 39.6745 11.0879C39.8545 10.4859 41.1595 10.3869 41.2065 10.6389V14.8089C40.5765 14.8039 38.5655 14.8709 37.6615 16.5419C37.1135 17.5439 37.1475 18.6759 37.7305 19.4699C38.2065 20.1199 39.1865 20.9489 40.8745 20.6689Z" fill="black"/>
<path fill-rule="evenodd" clip-rule="evenodd" d="M57.4021 6.84406C57.4021 6.84406 55.8181 7.77706 54.7541 8.38806C53.6871 8.99706 52.2621 9.67706 52.2621 9.67706V16.1201L51.3091 16.8581L51.4371 17.0031L52.3651 16.2751L55.2751 18.8221L60.3391 14.9441L60.2191 14.8021L57.4201 16.9271L55.1231 14.8431V14.0661L59.7401 10.7801L57.4021 6.84406ZM57.4681 12.1661L55.1231 13.8301V8.29706L57.4681 12.1661Z" fill="black"/>
<path fill-rule="evenodd" clip-rule="evenodd" d="M64.4774 18.8723L61.9964 16.8773L60.9054 17.6403L60.7984 17.4943L61.9034 16.7113V11.1283C61.9574 8.83227 59.7304 9.40127 59.8504 6.96127C59.9044 5.89027 60.9744 5.08227 61.5174 4.81627C62.0924 4.53027 62.7224 4.53027 62.7224 4.53027C62.7224 4.53027 61.7044 5.14627 61.9504 6.03027C62.3314 7.39327 64.7384 7.51327 64.7814 9.32727V15.6583L66.5614 17.0383L67.0284 16.6813V9.82827L66.0684 8.90727L68.5364 6.79827L70.7924 8.72927L69.9314 9.63027V15.7043L72.0404 17.3893L72.4174 17.1613V9.84827L71.4544 8.98027L73.9304 6.79027L76.2394 8.63727L77.1644 7.84827L77.2884 7.98727L75.2104 9.75327V15.7113L69.8944 18.8863L67.1744 16.8033L64.4774 18.8723Z" fill="black"/>
<path fill-rule="evenodd" clip-rule="evenodd" d="M173.229 6.84406C173.229 6.84406 171.644 7.77706 170.581 8.38806C169.518 8.99706 168.087 9.67706 168.087 9.67706V16.1201L167.135 16.8581L167.262 17.0031L168.192 16.2751L171.103 18.8221L176.165 14.9441L176.045 14.8021L173.249 16.9271L170.947 14.8431L170.949 14.0661L175.569 10.7801L173.229 6.84406ZM173.299 12.1661L170.947 13.8301V8.29706L173.299 12.1661Z" fill="black"/>
<path fill-rule="evenodd" clip-rule="evenodd" d="M149.466 9.54271L149.59 9.67871L150.544 8.88771L151.957 10.4367V15.7637L151.273 16.3667L153.477 18.7817L155.738 16.6237L154.808 15.6907V9.24871L155.371 8.81471L156.937 10.5817V15.8927L156.349 16.4607L158.427 18.7217L160.645 16.5717L159.828 15.7447L159.808 9.27471L160.406 8.80571L162.039 10.5447V15.8237L161.502 16.3437L163.796 18.7637L166.873 16.0117L166.745 15.8747L165.994 16.5417L164.847 15.3107V9.28371L165.955 8.46971L165.838 8.32271L164.73 9.13671L162.636 6.86371L159.644 9.15571L157.545 6.94871L154.655 9.13471L152.536 6.95571L149.466 9.54271Z" fill="black"/>
<path fill-rule="evenodd" clip-rule="evenodd" d="M143.201 9.37582L143.327 9.51382L144.131 8.84182L145.393 10.2838V16.3728L144.506 17.1238L144.628 17.2628L145.558 16.4918L147.594 18.7628L150.528 16.2248L150.405 16.0848L149.54 16.8228L148.325 15.4678V9.51482L149.349 8.65682L149.224 8.51582L148.252 9.32682L146.111 6.91382L143.201 9.37582Z" fill="black"/>
<path fill-rule="evenodd" clip-rule="evenodd" d="M144.049 4.33608L146.258 2.37708L148.055 4.30308L145.836 6.25608L144.049 4.33608Z" fill="black"/>
<mask id="mask1_100_48" style="mask-type:luminance" maskUnits="userSpaceOnUse" x="129" y="0" width="15" height="20">
<path fill-rule="evenodd" clip-rule="evenodd" d="M143.689 0H129.64V19.069H143.689V0Z" fill="white"/>
</mask>
<g mask="url(#mask1_100_48)">
<path fill-rule="evenodd" clip-rule="evenodd" d="M141.074 0.0227942C141.593 0.0647942 142.406 0.314794 143.017 0.833794C143.669 1.44279 143.818 2.37179 143.587 3.21279C143.386 3.96479 143.16 4.35579 142.369 4.87179C141.566 5.39979 140.6 5.35579 140.6 5.35579V8.60779L142.237 9.88979L140.6 11.1678V15.6028C140.6 15.6028 142.238 14.6888 143.254 12.6588C143.254 12.6588 143.299 12.5448 143.393 12.3318C143.48 12.8818 143.43 13.9878 142.793 15.4008C142.313 16.4688 141.44 17.4998 140.343 18.0878C138.401 19.1248 136.944 19.2258 135.383 18.9128C133.554 18.5458 131.894 17.5568 130.762 15.8218C129.966 14.5988 129.61 13.1798 129.642 11.6468C129.705 8.64679 132.013 6.06379 134.678 5.09179C134.997 4.97679 135.129 4.89779 135.587 4.86079C135.375 4.99879 135.135 5.17679 134.831 5.36879C133.974 5.92079 133.238 7.00379 132.925 7.83879L138.092 5.60979V12.6048L133.925 14.6198C134.4 15.2638 135.842 16.2248 137.076 16.3598C139.176 16.5838 140.409 15.6978 140.409 15.6978V11.1678L138.78 9.88979L140.409 8.61079V5.35579C139.52 5.25479 138.444 4.96979 137.812 4.81879C136.884 4.59679 133.793 3.75879 133.311 3.68879C132.823 3.62079 132.226 3.64179 131.864 3.95379C131.5 4.27179 131.275 4.82779 131.431 5.32979C131.517 5.61279 131.72 5.77879 131.869 5.93879C131.869 5.93879 131.694 5.92579 131.371 5.73779C130.786 5.39979 130.338 4.73279 130.29 3.91379C130.22 2.84879 130.679 1.88279 131.59 1.23079C132.383 0.740794 133.281 0.422794 134.325 0.564794C135.846 0.774794 137.891 1.61179 139.716 2.03379C140.422 2.19779 140.97 2.25179 141.464 1.97279C141.695 1.81479 142.1 1.39879 141.77 0.840794C141.381 0.194794 140.638 0.211794 140.009 0.0937942C140.55 -0.0152058 140.668 -0.0152058 141.074 0.0227942ZM134.933 13.9248V7.17179L132.833 8.08279C132.833 8.08279 132.299 9.23879 132.393 10.9238C132.464 12.2358 133.225 13.8078 133.809 14.4658L134.933 13.9248Z" fill="black"/>
</g>
<mask id="mask2_100_48" style="mask-type:luminance" maskUnits="userSpaceOnUse" x="176" y="6" width="9" height="14">
<path fill-rule="evenodd" clip-rule="evenodd" d="M185 19.6742V6.19855L176.652 6.19855V19.6742H185Z" fill="white"/>
</mask>
<g mask="url(#mask2_100_48)">
<path fill-rule="evenodd" clip-rule="evenodd" d="M178.86 19.6595C178.523 19.7545 177.07 19.4095 176.718 17.9465C176.376 16.5255 177.402 15.5595 178.943 14.0395L177.121 12.4275V9.34955C177.121 9.34955 178.463 8.70155 179.511 8.06755C180.557 7.42955 181.633 6.74355 181.633 6.74355C181.633 6.74355 182.417 7.69755 183.301 7.62555C184.69 7.50655 184.623 6.44855 184.582 6.19855C184.819 6.60855 185.453 7.82255 183.017 10.5405L185 12.0895V16.0875C185 16.0875 182.699 17.2475 180.518 18.7875C180.518 18.7875 179.304 17.3145 178.247 18.0215C177.531 18.4955 177.862 19.2995 178.86 19.6595ZM177.146 16.5715C177.146 16.5715 178.194 14.8975 179.991 15.2595C181.718 15.6025 182.316 17.3675 182.316 17.3675V13.3075L181.113 12.2965C179.791 13.5815 177.441 15.4425 177.146 16.5715ZM179.815 8.09255V11.2895L180.918 12.2215C180.918 12.2215 183.307 10.3645 184.176 8.65055C184.176 8.65055 183.1 10.0625 181.657 9.63055C180.445 9.26955 179.815 8.09255 179.815 8.09255Z" fill="black"/>
</g>
<path fill-rule="evenodd" clip-rule="evenodd" d="M104.432 9.5027L105.326 8.7067L105.454 8.8487L104.583 9.6287V15.9857C104.583 15.9857 102.934 16.8387 101.78 17.4627C100.629 18.0987 99.3931 18.8357 99.3931 18.8357L96.3641 16.3627L95.5641 17.0407L95.4341 16.8967L96.2761 16.1877V9.3487H96.2861C96.2861 9.3487 97.7161 8.7247 98.9241 8.0677C100.002 7.4787 101.208 6.7937 101.208 6.7937L104.432 9.5027ZM99.1531 15.1057L101.712 17.3527V10.4857L99.1531 8.1967V15.1057Z" fill="black"/>
<path fill-rule="evenodd" clip-rule="evenodd" d="M110.388 8.86221L112.316 6.95521C112.316 6.95521 112.581 7.18021 112.83 7.29921C112.97 7.36621 113.554 7.65421 114.087 7.37221C114.378 7.21721 114.417 7.17721 114.738 6.88721C114.801 8.36921 114.067 9.40821 113.151 9.84021C112.777 10.0172 111.68 10.3562 110.534 9.00421V15.8492L111.752 16.8872L112.771 16.0742L112.887 16.2172L109.702 18.7902L107.278 16.6532L106.409 17.4512L106.263 17.3042L107.591 16.1442L107.602 10.2372L106.582 8.93021L105.709 9.67621L105.583 9.54221L108.668 6.85321L110.388 8.86221Z" fill="black"/>
<path fill-rule="evenodd" clip-rule="evenodd" d="M118.51 11.7143L122.068 6.70034C122.068 6.70034 122.537 7.23734 123.357 7.44434C124.465 7.72534 125.439 6.68634 125.439 6.68634C125.251 8.02634 124.547 9.55234 123.1 9.78034C121.821 9.98634 120.635 9.02634 120.635 9.02634L120.406 9.37134L125.346 16.5953L126.334 15.7583L126.464 15.8963L123.071 18.7633L118.51 11.7143Z" fill="black"/>
<path fill-rule="evenodd" clip-rule="evenodd" d="M115.569 5.01734C115.569 3.93735 115.11 3.26834 114.512 3.31534L118.393 0.678345V15.6193L119.418 16.6663L120.193 16.0143L120.319 16.1543L117.19 18.8013L115.068 16.8703L114.224 17.5943L114.086 17.4543L115.569 16.2053V5.01734Z" fill="black"/>
<path fill-rule="evenodd" clip-rule="evenodd" d="M83.1112 4.76941C83.1112 3.76741 82.6862 3.19741 82.0002 3.18441C81.0152 3.16541 80.7782 4.50941 80.7782 4.50941C80.7782 4.50941 80.5982 3.47341 81.4982 2.53041C82.0022 2.00041 82.9442 1.26441 84.4152 1.60641C85.9362 1.96241 86.3712 3.10241 86.3712 4.11241V18.0174C86.3712 18.0174 86.9432 18.0824 87.3392 18.1634C87.7942 18.2604 88.2292 18.3784 88.2292 18.3784V1.61241H88.4152V3.87541L91.5382 1.44641L93.8192 3.40941L94.8852 2.51541L95.0062 2.65741L93.8932 3.58541V16.5104C93.8362 17.3574 93.6972 18.2134 92.8752 18.7054C91.0412 19.7614 88.8262 18.5444 86.8542 18.2664C85.3892 18.0584 83.0932 17.7894 82.5182 19.0904C82.3262 19.5184 82.3412 20.1784 83.0052 20.6054C84.3372 21.4704 90.2682 19.1584 92.3072 20.0784C94.1602 20.9144 94.1542 22.2374 93.8692 23.1414C93.3852 24.8474 91.1622 25.1454 91.1622 25.1454C91.1622 25.1454 92.2492 24.5364 91.9382 23.5264C91.7812 23.0104 91.4222 22.8684 90.2572 22.9954C87.7142 23.2724 84.6762 24.4674 82.6322 23.6394C81.5802 23.2144 80.8382 21.9384 80.9072 20.6904C80.9592 18.8874 83.1112 18.1754 83.1112 18.1754V11.5164C83.0462 11.2494 81.9012 11.3224 81.6512 11.8094C81.2702 12.5484 82.1232 12.8924 82.1232 12.8924C82.1232 12.8924 81.4162 12.9894 80.8212 12.3254C80.5312 12.0054 79.9272 10.8704 80.7112 9.82041C81.3572 8.95641 82.1322 8.80541 83.1112 8.69941V4.76941ZM88.4152 18.4244C88.4152 18.4244 89.3252 18.6614 89.9832 18.1344C90.7152 17.5494 90.6412 16.7294 90.6412 16.7294V11.5514C90.6412 11.5514 90.2142 11.0264 89.5382 11.0264C88.8642 11.0264 88.4152 11.5674 88.4152 11.5674V18.4244ZM90.6412 4.83441L89.1392 3.55941L88.4152 4.11241V8.91141C88.4152 8.91141 88.8642 9.45741 89.5382 9.45741C90.2142 9.45741 90.6412 8.93141 90.6412 8.93141V4.83441ZM90.6412 9.21841C90.6412 9.21841 90.2122 9.69141 89.5322 9.69141C88.8612 9.69141 88.4152 9.21841 88.4152 9.21841V11.2624C88.4152 11.2624 88.8612 10.7854 89.5322 10.7854C90.2122 10.7854 90.6412 11.2374 90.6412 11.2374V9.21841Z" fill="black"/>
</svg>
