<svg width="16" height="22" viewBox="0 0 16 22" fill="none" xmlns="http://www.w3.org/2000/svg">
<g clip-path="url(#clip0_6317_1472)">
<path d="M15.6424 13.1684C15.3433 14.0587 14.869 14.8726 14.2506 15.5567C13.6322 16.2408 12.8837 16.7798 12.0539 17.1384V13.1684L14.1247 11.2154L12.0539 9.2836V6.55644C12.9005 6.53989 13.7076 6.17701 14.3044 5.54467C14.9013 4.91232 15.2408 4.06018 15.2512 3.16878C15.2512 0.825121 13.1332 0.00129394 11.9257 0.00129394C11.5986 -0.00773273 11.2717 0.0305031 10.9544 0.114929V0.228542C11.1096 0.228542 11.3457 0.228542 11.4266 0.228542C12.263 0.228542 12.8903 0.640474 12.8903 1.443C12.8836 1.61447 12.844 1.78272 12.7739 1.93764C12.7038 2.09256 12.6046 2.23093 12.4823 2.34441C12.3601 2.45788 12.2172 2.54412 12.0624 2.59792C11.9077 2.65172 11.7441 2.67196 11.5817 2.65744C9.51091 2.65744 7.07587 0.896132 4.43844 0.896132C3.44375 0.841579 2.46861 1.20141 1.72388 1.8978C0.979156 2.59419 0.524677 3.5712 0.458678 4.6176C0.458678 6.46412 1.47721 7.06779 2.54972 7.4584V7.34477C2.35881 7.21581 2.20468 7.03477 2.10372 6.82092C2.00276 6.60707 1.95876 6.36842 1.97638 6.13033C2.00751 5.70131 2.19747 5.30234 2.50533 5.01939C2.81319 4.73643 3.2143 4.59214 3.62224 4.6176C5.8482 4.6176 9.4367 6.57065 11.6559 6.57065H11.8651V9.32624L9.79424 11.2296L11.8651 13.1826V17.2094C10.9992 17.533 10.0856 17.6917 9.16693 17.6782C5.71332 17.6782 3.51433 15.4766 3.51433 11.8048C3.507 10.9374 3.62063 10.0736 3.8516 9.24099L5.57841 8.44557V16.549L9.08595 14.9226V6.60615L3.92579 9.02794C4.16755 8.28633 4.54658 7.60256 5.04097 7.0162C5.53536 6.42983 6.13532 5.95253 6.80606 5.61188V5.52666C3.35245 6.32918 0 9.07765 0 13.2181C0 17.9836 3.82461 21.2931 8.26979 21.2931C12.9915 21.2931 15.6492 17.9836 15.6897 13.1613L15.6424 13.1684Z" fill="#979797"/>
</g>
<defs>
<clipPath id="clip0_6317_1472">
<rect width="16" height="22" fill="white"/>
</clipPath>
</defs>
</svg>
